<svg xmlns="http://www.w3.org/2000/svg" xmlns:xlink="http://www.w3.org/1999/xlink" width="106.667" height="106.667" viewBox="0 0 80 80" preserveAspectRatio="xMidYMid meet"><path d="M31.4 11c-2.2 1.1-5.5 3.6-7.4 5.5-3 3.1-3.1 3.5-1.6 5 1.5 1.6 2.2 5.1 1.8 10.7-.2 2.6 4.9 14.1 6.8 15.3.5.3 1 1.5 1 2.5 0 1.3-2 2.8-7.1 5.1-8.3 3.8-10.9 6.7-10.9 12V71h52v-3.9c0-5.3-2.6-8.2-10.9-12C50 52.8 48 51.3 48 50c0-1 .4-2.1 1-2.5.5-.3 2.2-3.4 3.9-6.8 2.6-5.5 2.9-7.2 2.8-14.3-.2-8.8-1.1-10.7-6.2-13.1L44 10.5c-3.5-2-7.8-1.8-12.6.5zm12.9 2c1.4 1.1 3 2 3.7 2 .6 0 2.2 1.1 3.5 2.5 2 1.9 2.5 3.4 2.5 7.2l-.1 4.8-1.4-4c-1.6-4.5-4.2-6.9-6.5-5.9-1.6.7-6.5 2-11.4 2.9-1.6.4-4.2 2-5.8 3.7l-2.8 3v-3.4c0-1.9-.5-3.9-1.2-4.6-2.5-2.5 7.7-10.1 13.8-10.2 1.7 0 4.3.9 5.7 2zM51 29.6c0 3.4.3 4.2 1.5 3.8 1-.4 1.5 0 1.5 1 0 .9-.6 1.9-1.4 2.2s-1.7 2-2 3.8c-1.2 6.4-8.4 10.6-14 8.2-3.9-1.6-7.6-6-7.6-9.1 0-1.3-.7-2.5-1.5-2.9-.8-.3-1.5-1.3-1.5-2.2 0-1 .5-1.4 1.5-1 1.1.4 1.5-.2 1.5-2 0-3.8 4.2-7.4 8.7-7.4 2.1-.1 5.2-.7 6.8-1.4 2.7-1.3 3.2-1.2 4.8.6 1 1.3 1.7 3.7 1.7 6.4zM40 51.4c1.4 0 3.3-.4 4.3-.8 1.4-.7 1.7-.3 1.7 2 0 5.6-6.1 8.4-10.2 4.7-1-.9-1.8-2.9-1.8-4.6 0-2.4.3-2.8 1.8-2.1.9.4 2.8.8 4.2.8zM33.8 58c4.1 4.1 8.3 4 12.4-.1l3.1-3.1 4.4 1.7C60.1 59 64 62.6 64 66.1V69H16v-2.8c0-1.7.9-3.7 2.3-5 2-1.9 10.2-6.1 11.9-6.2.3 0 2 1.3 3.6 3z"/><use xlink:href="#B"/><use xlink:href="#B" x="11"/><use xlink:href="#C"/><use xlink:href="#C" x="4"/><use xlink:href="#C" x="8"/><use xlink:href="#C" x="12"/><use xlink:href="#C" x="16"/><use xlink:href="#C" x="20"/><use xlink:href="#C" x="24"/><use xlink:href="#C" x="28"/><use xlink:href="#C" x="32"/><use xlink:href="#C" x="36"/><use xlink:href="#C" x="40"/><path d="M68 11c0 1.3.7 2 2 2s2-.7 2-2-.7-2-2-2-2 .7-2 2zm0 12.5c0 6.8.2 7.5 2 7.5s2-.7 2-7.5-.2-7.5-2-7.5-2 .7-2 7.5z"/><defs ><path id="B" d="M33 34.5a1.54 1.54 0 0 0 1.5 1.5 1.54 1.54 0 0 0 1.5-1.5 1.54 1.54 0 0 0-1.5-1.5 1.54 1.54 0 0 0-1.5 1.5z"/><path id="C" d="M19 66a1.08 1.08 0 0 0 1 1c.6 0 1-.5 1-1a.94.94 0 0 0-1-1c-.5 0-1 .4-1 1z"/></defs></svg>