<svg xmlns="http://www.w3.org/2000/svg" width="85.333" height="85.333" viewBox="0 0 64 64" preserveAspectRatio="xMidYMid meet"><path d="M24.7 5.6c-.8.8.3 3.4 1.4 3.4s1.2-2.7 0-3.4c-.4-.3-1.1-.3-1.4 0zm11.4 2.9c-8.7 3.2-16.4 8.7-22.2 16C4.3 36.3 2 44.2 6 52c2.4 4.6 4.9 6.2 9.3 5.8 3-.3 3.4-.9 6.1-7.5l3-7.3-2.3-3c-1.4-1.9-2-3.8-1.6-5 1-3.2 9.2-11 13.8-13l4.2-2 2.8 3.5c1.6 1.9 3.5 3.5 4.3 3.5s4.1-1.4 7.4-3c5.5-2.8 6-3.3 6-6.4 0-6-6.7-11.7-13.7-11.5-1.5 0-5.7 1.1-9.2 2.4zm15.5 1.1c6.5 3.1 6.1 4.6-2.2 8.7-5.9 2.9-7.6 3.4-8 2.3-1-2.5-3.4-2.6-7.7-.5-8.9 4.5-16.3 13-15.4 17.7.7 3.6-5 17.4-7.1 17-2-.4-5.2-6.7-5.2-10.3 0-7 9.5-21 18.9-27.9 5.5-4 16.1-8.5 20.4-8.6 1.6 0 4.4.7 6.3 1.6zm5.4 8.8c0 1.7-10.7 6.9-12.3 5.9-.5-.3 1.9-2.1 5.4-3.9 7.6-3.9 6.9-3.7 6.9-2zM22 42.9c0 1.2-4.2 11.4-5.2 12.5-.4.5-1 .7-1.3.4C14.7 55 20 42 21.1 42c.5 0 .9.4.9.9zm8.4-25.4c-1.7 1.3-1.7 1.4-.2 1.5.9 0 2-.5 2.3-1.1 1.1-1.7 0-2-2.1-.4zM20 25.6c-2.9 3-4.9 5.8-4.6 6.1.7.7 11.6-9.6 11.6-10.9 0-1.9-2-.5-7 4.8zm.2-16.4c.2.6 1 1.4 1.6 1.6.7.2 1-.2.6-1.2-.7-1.8-2.8-2.2-2.2-.4zM16 12.3c0 1.9 1.6 3.1 2.4 1.8.3-.5-.1-1.4-.9-2.1-1.2-1-1.5-1-1.5.3zm-3.8 3.8c.2.7 1 1.5 1.7 1.7.8.3 1.2-.1.9-.9-.2-.7-1-1.5-1.7-1.7-.8-.3-1.2.1-.9.9zM8 19.4c0 .2.7.9 1.5 1.6 1.2 1 1.5 1 1.5-.4 0-.9-.7-1.6-1.5-1.6s-1.5.2-1.5.4zm-3 4c0 .2.7.9 1.5 1.6 1.2 1 1.5 1 1.5-.4 0-.9-.7-1.6-1.5-1.6s-1.5.2-1.5.4zm-3 4.4c0 .5.7 1.3 1.6 1.6 1 .4 1.4.1 1.2-.6-.5-1.5-2.8-2.3-2.8-1z"/></svg>