<svg xmlns="http://www.w3.org/2000/svg" width="133.333" height="133.333" viewBox="0 0 100 100" preserveAspectRatio="xMidYMid meet"><path d="M60.3 10.2c-1 5.1-3 5.9-7.4 2.7l-3.1-2.2-3.5 3.6-3.6 3.5 2.2 3.1c3.2 4.4 2.4 6.4-2.7 7.4l-4.2.8v9.6l4.2.9c5.1 1.1 5.9 3.1 2.7 7.5l-2.2 3.1 3.6 3.5 3.5 3.6 3.1-2.2c4.4-3.2 6.4-2.4 7.4 2.7l.8 4.2h9.6l.9-4.2c1.1-5.1 3.1-5.9 7.5-2.7l3.1 2.2 3.5-3.6 3.6-3.5-2.2-3.1c-3.2-4.4-2.4-6.4 2.7-7.5l4.2-.9v-9.6l-4.2-.8c-5.1-1-5.9-3-2.7-7.4l2.2-3.1-3.6-3.5-3.5-3.6-3.1 2.2c-4.4 3.2-6.4 2.4-7.5-2.7L70.7 6h-9.6l-.8 4.2zm7.9 3c.2 2.7 1 3.6 4.1 5.1 3.7 1.7 3.9 1.7 6.6-.2 3.9-2.8 5.8-.9 3.1 2.9-1.6 2.3-1.8 3.2-.8 6.4s1.6 3.7 5 4.2c2.8.5 3.8 1.1 3.8 2.5s-.7 1.9-2.7 1.9c-3.7 0-4.8.9-6.1 4.9-1 2.9-.9 3.7.8 6.1 2.7 3.8.8 5.7-3.1 2.9-2.7-1.9-2.9-1.9-6.6-.2-3.1 1.5-3.9 2.4-4.1 5.1-.2 2.4-.8 3.2-2.3 3.2-1.2 0-1.9-.7-1.9-1.9 0-3.5-1.2-5.2-4.7-6.6-3.2-1.4-3.7-1.3-6.2.5-3.9 2.7-5.8.8-3-3.1 1.9-2.7 1.9-2.9.2-6.6-1.5-3.1-2.4-3.9-5.1-4.1-2.4-.2-3.2-.8-3.2-2.3 0-1.2.7-1.9 1.9-1.9 3.5 0 5.2-1.2 6.6-4.7 1.4-3.2 1.3-3.7-.5-6.2-2.7-3.9-.8-5.8 3.1-3 2.7 1.9 2.9 1.9 6.6.2 3.1-1.5 3.9-2.4 4.1-5.1.2-2.3.8-3.2 2.2-3.2s2 .9 2.2 3.2zm-7.1 12.2C52.4 30.2 56.1 44 66 44c5.1 0 10-4.9 10-9.9 0-7.5-8.3-12.4-14.9-8.7zM70 30c1.1 1.1 2 2.9 2 4 0 2.6-3.4 6-6 6-1.1 0-2.9-.9-4-2s-2-2.9-2-4 .9-2.9 2-4 2.9-2 4-2 2.9.9 4 2zM32.5 9.4c-7.1 3.2-13 10.3-15.5 18.4-1.1 3.5-2 7.2-2 8.2s-2 5.3-4.5 9.6C8 50 6 54.3 6 55.2c0 1.8 3.9 5.3 7 6.3 1.4.4 2 2 2.5 6.3C17.1 81.6 20.4 86 29.1 86H34v4c0 3.3.3 4 2 4 1.8 0 2-.7 2-6v-6h-6.1c-3.3 0-6.9-.5-7.9-1-2.2-1.2-3.6-5.7-4.6-14.8-.7-6.1-.8-6.3-4.8-8.4-2.2-1.1-4.3-2.2-4.5-2.4s1.7-4 4.3-8.5c2.5-4.5 4.6-8.9 4.6-9.8 0-3.5 3.2-12.7 5.8-16.4 2.9-4.3 8.6-8 15-9.7 2.5-.6 4.2-1.7 4.2-2.5 0-2.3-5.7-1.8-11.5.9zM75 64.2c-3.3 5.4-5 12.7-5 21.5 0 7.5.2 8.3 1.9 8.3s1.9-.9 2.3-9.8c.2-8.2.7-10.6 3.1-15.4 2.7-5.4 2.8-7.8.6-7.8-.5 0-1.8 1.5-2.9 3.2z"/></svg>